<svg xmlns="http://www.w3.org/2000/svg" width="352" height="263" fill="none"><g filter="url(#yLqsTGwG__a)"><path fill="#000" d="M148.262 54.287h-5.256v3.938h6.143V60h-8.367V47.203h8.306v1.793h-6.082v3.533h5.256zm5.906-.668 1.811-3.129h2.373l-2.91 4.685L158.448 60h-2.355l-1.899-3.252L152.305 60h-2.373l3.006-4.825-2.901-4.685h2.356zm9.369 4.852q.8 0 1.327-.466t.563-1.152h2.012a3.16 3.16 0 0 1-.553 1.662q-.519.765-1.407 1.212a4.2 4.2 0 0 1-1.916.449q-1.994 0-3.164-1.292-1.169-1.292-1.169-3.569v-.22q0-2.17 1.161-3.471 1.16-1.31 3.164-1.31 1.696 0 2.759.994 1.073.984 1.125 2.592h-2.012q-.036-.817-.563-1.344-.518-.528-1.327-.528-1.037 0-1.599.756-.564.747-.572 2.276v.343q0 1.547.554 2.312.563.756 1.617.756m9.703 1.705q-2.03 0-3.296-1.275-1.256-1.283-1.256-3.41v-.264q0-1.423.544-2.54.555-1.125 1.547-1.748a4.1 4.1 0 0 1 2.215-.624q1.942 0 2.997 1.239 1.064 1.24 1.064 3.506v.862h-6.214q.096 1.178.782 1.863.695.686 1.74.686 1.469 0 2.391-1.187l1.151 1.099a3.87 3.87 0 0 1-1.529 1.327q-.95.465-2.136.466m-.255-8.148q-.879 0-1.423.616-.536.615-.686 1.713h4.069V54.2q-.07-1.072-.571-1.617-.501-.554-1.389-.554M180.992 60h-2.136V46.5h2.136zm4.606 0h-2.136V46.5h2.136zm6.521.176q-2.03 0-3.296-1.275-1.257-1.283-1.257-3.41v-.264q0-1.423.545-2.54.554-1.125 1.547-1.748a4.1 4.1 0 0 1 2.215-.624q1.942 0 2.997 1.239 1.064 1.24 1.064 3.506v.862h-6.214q.096 1.178.782 1.863.694.686 1.74.686 1.469 0 2.391-1.187l1.151 1.099a3.87 3.87 0 0 1-1.529 1.327q-.95.465-2.136.466m-.255-8.148q-.879 0-1.424.616-.536.615-.685 1.713h4.069V54.2q-.07-1.072-.571-1.617-.501-.554-1.389-.554m7.717-1.538.062 1.099q1.055-1.274 2.768-1.274 2.97 0 3.024 3.4V60h-2.136v-6.161q0-.906-.396-1.336-.386-.44-1.274-.44-1.292 0-1.925 1.17V60h-2.136v-9.51zm10.714-2.311v2.311h1.679v1.582h-1.679v5.309q0 .545.211.79.22.239.773.238.369 0 .747-.088v1.653a5.3 5.3 0 0 1-1.406.202q-2.461 0-2.461-2.716v-5.388h-1.564V50.49h1.564V48.18z"/><path fill="#219653" d="M60 75h40v40H60z"/><path fill="#fff" d="m80 102.352 6.083-1.629L88.625 109zm14-10.698H83.292L80 81l-3.292 10.654H66l8.667 6.604-3.292 10.654 8.667-6.604 5.333-4.05z"/><path fill="#219653" d="M108 75h40v40h-40z"/><path fill="#fff" d="m128 102.352 6.083-1.629 2.542 8.277zm14-10.698h-10.708L128 81l-3.292 10.654H114l8.667 6.604-3.292 10.654 8.667-6.604 5.333-4.05z"/><path fill="#219653" d="M156 75h40v40h-40z"/><path fill="#fff" d="m176 102.352 6.083-1.629 2.542 8.277zm14-10.698h-10.708L176 81l-3.292 10.654H162l8.667 6.604-3.292 10.654 8.667-6.604 5.333-4.05z"/><path fill="#219653" d="M204 75h40v40h-40z"/><path fill="#fff" d="m224 102.352 6.083-1.629 2.542 8.277zm14-10.698h-10.708L224 81l-3.292 10.654H210l8.667 6.604-3.292 10.654 8.667-6.604 5.333-4.05z"/><path fill="#219653" d="M252 75h40v40h-40z"/><path fill="#fff" d="m272 102.352 6.083-1.629 2.542 8.277zm14-10.698h-10.708L272 81l-3.292 10.654H258l8.667 6.604-3.292 10.654 8.667-6.604 5.333-4.05z"/><path fill="#000" d="M106.67 134.215h-2.803l-.013-.711h2.413q.738 0 1.257-.212a1.63 1.63 0 0 0 .787-.629q.273-.423.273-1.039 0-.629-.267-1.039-.266-.417-.799-.615-.534-.198-1.34-.199h-2.092V139h-.841v-9.953h2.933q.759 0 1.36.15a2.8 2.8 0 0 1 1.025.472q.424.321.643.813.225.486.226 1.163 0 .615-.274 1.114-.273.492-.772.806-.493.308-1.183.383zm-.062 4.785h-3.007l.43-.718h2.577q.74 0 1.258-.246.527-.252.807-.718t.28-1.107q0-.567-.246-1.019a1.74 1.74 0 0 0-.752-.711q-.506-.266-1.285-.266h-1.743l.013-.711h2.468l.151.253q.67.067 1.169.417.506.342.779.868.28.526.28 1.155 0 .903-.403 1.532a2.55 2.55 0 0 1-1.114.95q-.711.321-1.662.321m9.53-1.326v-3.815a1.8 1.8 0 0 0-.219-.909 1.44 1.44 0 0 0-.643-.588q-.423-.204-1.046-.205-.573 0-1.025.205a1.76 1.76 0 0 0-.704.54 1.2 1.2 0 0 0-.253.745l-.82-.006q0-.417.205-.807t.581-.697a2.9 2.9 0 0 1 .895-.486 3.5 3.5 0 0 1 1.156-.184q.792 0 1.394.266.61.267.95.8.342.533.342 1.34v3.575q0 .383.055.793.061.41.171.677V139h-.868a3.3 3.3 0 0 1-.13-.615 6 6 0 0 1-.041-.711m.191-2.981.014.629h-1.607q-.629 0-1.128.116a2.6 2.6 0 0 0-.834.329 1.6 1.6 0 0 0-.526.512 1.3 1.3 0 0 0-.178.684q0 .396.199.725.205.327.574.526.376.19.888.191.684 0 1.204-.253.526-.252.868-.663.341-.41.458-.895l.355.471a2.4 2.4 0 0 1-.328.705q-.233.355-.608.669a3.2 3.2 0 0 1-.889.506q-.506.192-1.148.192-.725 0-1.265-.274a2.1 2.1 0 0 1-.834-.745 2 2 0 0 1-.294-1.08q0-.546.232-.977.233-.438.67-.739.445-.308 1.067-.465a5.6 5.6 0 0 1 1.408-.164zm7.246 2.42q0-.3-.15-.594t-.581-.54q-.424-.247-1.251-.417a10 10 0 0 1-1.101-.308 3.2 3.2 0 0 1-.806-.41 1.6 1.6 0 0 1-.499-.574 1.7 1.7 0 0 1-.171-.793q0-.41.177-.773a1.95 1.95 0 0 1 .52-.642 2.5 2.5 0 0 1 .82-.438 3.5 3.5 0 0 1 1.087-.157q.855 0 1.463.294.615.287.937.786.328.5.328 1.128h-.814q0-.383-.225-.725a1.6 1.6 0 0 0-.65-.56q-.423-.219-1.039-.219-.636 0-1.032.191-.396.192-.581.486a1.15 1.15 0 0 0-.178.608q0 .246.075.451a1 1 0 0 0 .287.369 2.3 2.3 0 0 0 .602.322q.39.15 1.012.294.895.198 1.463.485.574.28.847.697.274.41.274.998 0 .459-.192.841a1.9 1.9 0 0 1-.553.649 2.6 2.6 0 0 1-.862.424 3.9 3.9 0 0 1-1.121.151q-.936 0-1.586-.308-.642-.315-.977-.82a2 2 0 0 1-.328-1.087h.813q.04.575.362.909.323.328.786.465.472.137.93.137.629 0 1.053-.185t.642-.485q.219-.301.219-.65m5.524 2.024q-.725 0-1.333-.267a3.2 3.2 0 0 1-1.053-.752 3.5 3.5 0 0 1-.691-1.148 4.3 4.3 0 0 1-.239-1.463v-.294q0-.855.253-1.545t.697-1.183a3.1 3.1 0 0 1 1.012-.752 2.8 2.8 0 0 1 1.203-.266q.705 0 1.251.253.547.245.916.704.376.451.568 1.073.19.615.191 1.36v.499h-5.599v-.697h4.786v-.096a3 3 0 0 0-.253-1.162 2.1 2.1 0 0 0-.698-.888q-.465-.342-1.162-.342a2.1 2.1 0 0 0-.957.219 2.2 2.2 0 0 0-.745.629q-.307.403-.478.963-.165.555-.164 1.231v.294q0 .615.177 1.148.184.526.52.93.342.403.806.629.465.225 1.026.225.656 0 1.162-.239.506-.246.909-.772l.513.396q-.24.356-.602.656-.356.301-.854.479-.5.178-1.162.178m9.194-1.573V128.5h.82V139h-.765zm-5.134-2.187v-.144q0-.861.198-1.551.2-.698.568-1.19.375-.498.902-.759a2.6 2.6 0 0 1 1.19-.266q.649 0 1.148.212.5.212.855.608.362.397.581.943.225.548.328 1.217v1.825q-.082.63-.301 1.156-.22.519-.581.909a2.5 2.5 0 0 1-.875.595 3.1 3.1 0 0 1-1.169.205q-.657 0-1.183-.274a2.6 2.6 0 0 1-.895-.772 3.8 3.8 0 0 1-.568-1.196 5.5 5.5 0 0 1-.198-1.518m.82-.144v.144q0 .65.13 1.203.13.554.397.964t.677.643q.41.232.97.232.705 0 1.183-.267a2.2 2.2 0 0 0 .766-.717q.287-.451.417-.985v-2.126a4.5 4.5 0 0 0-.24-.738 2.5 2.5 0 0 0-.43-.69 1.9 1.9 0 0 0-.684-.513q-.41-.198-.998-.198-.567 0-.978.232a2 2 0 0 0-.683.649 3 3 0 0 0-.397.964q-.13.554-.13 1.203m10.254.185v-.226q0-.806.233-1.49t.663-1.182q.438-.5 1.046-.773.608-.28 1.353-.28.753 0 1.361.28.608.273 1.046.773.437.498.669 1.182t.233 1.49v.226a4.6 4.6 0 0 1-.233 1.49 3.5 3.5 0 0 1-.669 1.176 3 3 0 0 1-1.039.779 3.3 3.3 0 0 1-1.354.274q-.752 0-1.36-.274a3.1 3.1 0 0 1-1.046-.779 3.5 3.5 0 0 1-.67-1.176 4.6 4.6 0 0 1-.233-1.49m.814-.226v.226q0 .609.164 1.155.164.54.478.964.315.417.78.656.464.24 1.073.24.601 0 1.06-.24.464-.239.779-.656a3 3 0 0 0 .472-.964q.164-.546.164-1.155v-.226q0-.601-.164-1.141a3 3 0 0 0-.479-.964 2.3 2.3 0 0 0-.779-.67 2.25 2.25 0 0 0-1.067-.246q-.601 0-1.066.246a2.4 2.4 0 0 0-.779.67q-.315.423-.479.964-.157.54-.157 1.141m8.299-2.009V139h-.814v-7.396h.78zm-.185 1.661-.362-.205q.04-.657.266-1.231.227-.574.609-1.012.39-.437.909-.683a2.7 2.7 0 0 1 1.162-.246q.554 0 .991.15.438.15.745.479.308.327.465.841.164.512.164 1.251V139h-.82v-4.819q0-.766-.212-1.197a1.27 1.27 0 0 0-.601-.622 2.14 2.14 0 0 0-.923-.184q-.588 0-1.033.26a2.4 2.4 0 0 0-.738.663 3.2 3.2 0 0 0-.451.868 3 3 0 0 0-.171.875m17.138.437v1.545h-7.171l-.096-1.196 4.15-6.583h1.565l-1.695 2.837-2.065 3.397zm-1.128-6.234V139h-1.969v-9.953zm4.142 8.292-.006 1.319q0 .759-.383 1.531-.376.773-.957 1.265l-1.026-.526q.171-.315.335-.629.165-.315.274-.691t.109-.854v-1.415zm3.35-2.871-1.572-.376.567-5.045h5.592v1.593h-3.972l-.246 2.208q.198-.117.602-.246.403-.138.902-.137.725 0 1.285.225.561.226.95.657.397.43.602 1.052t.205 1.409q0 .663-.205 1.264a3.15 3.15 0 0 1-.622 1.067q-.417.464-1.046.731t-1.49.267q-.643 0-1.244-.192a3.4 3.4 0 0 1-1.074-.567 2.9 2.9 0 0 1-.758-.909 2.75 2.75 0 0 1-.294-1.231h1.955q.04.424.219.732.184.3.485.465.3.164.704.164.376 0 .643-.144.266-.144.43-.396.164-.26.24-.602.082-.348.082-.752t-.096-.731a1.6 1.6 0 0 0-.294-.568 1.3 1.3 0 0 0-.506-.369q-.3-.13-.704-.13-.547 0-.848.171-.294.171-.492.39m7.581 3.035h.13q.82 0 1.408-.198a2.5 2.5 0 0 0 .978-.588q.382-.383.567-.937.185-.56.185-1.271v-1.887q0-.54-.11-.95a1.9 1.9 0 0 0-.3-.677 1.3 1.3 0 0 0-.452-.41 1.16 1.16 0 0 0-.56-.137q-.329 0-.581.164a1.4 1.4 0 0 0-.431.431 2.3 2.3 0 0 0-.266.629 3 3 0 0 0-.089.731q0 .383.089.732.089.341.266.608.179.26.444.417.267.15.629.151.35 0 .622-.13a1.5 1.5 0 0 0 .472-.356q.199-.218.301-.485.11-.267.109-.54l.65.355q0 .479-.205.944-.206.465-.575.847a2.8 2.8 0 0 1-.84.602q-.478.225-1.026.225-.697 0-1.237-.252a2.7 2.7 0 0 1-.916-.711 3.2 3.2 0 0 1-.561-1.067 4.4 4.4 0 0 1-.191-1.319q0-.725.232-1.361.24-.635.677-1.121a3.15 3.15 0 0 1 1.06-.758 3.3 3.3 0 0 1 1.381-.281q.758 0 1.38.294.623.294 1.067.834.444.534.683 1.279a5.3 5.3 0 0 1 .246 1.654v.683q0 .971-.211 1.805a5.3 5.3 0 0 1-.623 1.511 4.3 4.3 0 0 1-1.025 1.148 4.4 4.4 0 0 1-1.415.732 6 6 0 0 1-1.805.253h-.157zm13.405-8.456v1.059L193.801 139h-2.078l3.848-8.415h-4.956v-1.538zm6.816 4.17V139h-1.969v-7.396h1.853zm2.228-1.661-.034 1.825a5 5 0 0 0-.348-.034 4 4 0 0 0-.363-.021q-.417 0-.724.11-.302.102-.506.307a1.34 1.34 0 0 0-.301.499 2.4 2.4 0 0 0-.109.67l-.397-.123q0-.717.144-1.319a3.6 3.6 0 0 1 .417-1.06q.28-.451.683-.697.404-.246.923-.246.165 0 .335.027.17.02.28.062m4.198 7.581q-.862 0-1.545-.274a3.4 3.4 0 0 1-1.162-.772 3.4 3.4 0 0 1-.725-1.142 3.8 3.8 0 0 1-.253-1.394v-.274q0-.84.239-1.538.24-.697.684-1.21a3 3 0 0 1 1.094-.786q.642-.28 1.449-.28.786 0 1.394.26.61.26 1.019.738.417.479.629 1.148.212.663.212 1.477v.82h-5.879v-1.312h3.944v-.151q0-.41-.15-.731a1.17 1.17 0 0 0-.438-.52q-.293-.19-.752-.191-.389 0-.67.171a1.33 1.33 0 0 0-.458.478q-.17.308-.259.725a4.6 4.6 0 0 0-.082.902v.274q0 .444.123.82.13.376.362.649.239.274.574.424.342.151.773.151.533 0 .991-.205.464-.213.8-.636l.957 1.039a2.9 2.9 0 0 1-.636.642 3.4 3.4 0 0 1-.957.506q-.561.192-1.278.192m6.576-1.573 1.64-5.96h2.058L218.67 139h-1.244zm-1.128-5.96 1.647 5.967.035 1.429h-1.251l-2.496-7.396zm7.786 0V139h-1.976v-7.396zm-2.099-1.928q0-.43.301-.711t.807-.28q.498 0 .8.28a.92.92 0 0 1 .307.711.92.92 0 0 1-.307.711q-.302.28-.8.28-.506 0-.807-.28a.93.93 0 0 1-.301-.711m7.13 9.461a4.1 4.1 0 0 1-1.545-.274 3.4 3.4 0 0 1-1.162-.772 3.4 3.4 0 0 1-.724-1.142 3.8 3.8 0 0 1-.253-1.394v-.274q0-.84.239-1.538.239-.697.684-1.21a3 3 0 0 1 1.093-.786q.643-.28 1.45-.28.786 0 1.394.26t1.019.738q.417.479.628 1.148.212.663.212 1.477v.82h-5.879v-1.312h3.945v-.151q0-.41-.151-.731a1.16 1.16 0 0 0-.437-.52q-.294-.19-.752-.191-.39 0-.67.171a1.3 1.3 0 0 0-.458.478q-.17.308-.26.725a4.7 4.7 0 0 0-.082.902v.274q0 .444.123.82.13.376.363.649.239.274.574.424.342.151.772.151.534 0 .992-.205.464-.213.799-.636l.957 1.039a3 3 0 0 1-.635.642 3.4 3.4 0 0 1-.957.506 4 4 0 0 1-1.279.192m6.269-2.051 1.538-5.482h1.251l-.403 2.153-1.539 5.243h-1.045zm-.779-5.482 1.1 5.475.103 1.921h-1.231l-1.873-7.396zm4.976 5.386 1.073-5.386h1.908L240.729 139h-1.223zm-1.237-5.386 1.531 5.441.212 1.955h-1.053l-1.538-5.236-.39-2.16zm9.208 5.352a.64.64 0 0 0-.123-.383q-.123-.171-.458-.314-.329-.15-.95-.274a7.4 7.4 0 0 1-1.046-.307 3.7 3.7 0 0 1-.834-.458 2 2 0 0 1-.547-.629 1.75 1.75 0 0 1-.198-.841q0-.465.198-.875.204-.41.581-.725.382-.32.93-.499a3.9 3.9 0 0 1 1.244-.184q.964 0 1.654.307.697.308 1.066.848.376.533.376 1.217h-1.968q0-.287-.123-.513a.8.8 0 0 0-.37-.362q-.246-.137-.642-.137-.328 0-.568.116a.9.9 0 0 0-.369.301.72.72 0 0 0-.123.41q0 .171.069.308.075.13.239.239.164.11.424.205.266.089.656.164.8.165 1.429.431.629.26.998.711.369.444.369 1.169 0 .492-.219.902a2.2 2.2 0 0 1-.629.718q-.41.3-.984.472a4.6 4.6 0 0 1-1.279.164q-1.032 0-1.75-.369-.71-.37-1.08-.937-.362-.575-.362-1.176h1.866q.014.404.205.65.2.246.499.355.308.11.664.11.383 0 .635-.103a.9.9 0 0 0 .383-.287.7.7 0 0 0 .137-.424"/><path fill="#000" d="M159.156 140.367h90.864v.684h-90.864z"/><path fill="#219653" d="m139.5 172.302 5.509-1.396 2.302 7.094zm12.679-9.17h-9.698L139.5 154l-2.981 9.132h-9.698l7.849 5.66-2.981 9.133 7.849-5.661 4.83-3.472z"/><path fill="#000" d="M165.554 161.219h-3.547V171h-1.961v-9.781h-3.515v-1.594h9.023zm5.227 3.062a5 5 0 0 0-.774-.062q-1.304 0-1.757 1V171h-1.899v-8.453h1.813l.046.945q.688-1.101 1.907-1.101.406 0 .672.109zm6.32 5.891q-.836.984-2.375.984-1.375 0-2.086-.804-.703-.805-.703-2.329v-5.476h1.898V168q0 1.61 1.336 1.609 1.383 0 1.868-.992v-6.07h1.898V171h-1.789zm8.508-1.469a.86.86 0 0 0-.422-.773q-.414-.266-1.383-.469t-1.617-.516q-1.422-.687-1.422-1.992 0-1.093.922-1.828.922-.734 2.344-.734 1.515 0 2.445.75.938.75.938 1.945h-1.899q0-.548-.406-.906-.406-.368-1.078-.368-.625 0-1.024.29a.91.91 0 0 0-.39.773.77.77 0 0 0 .367.68q.367.241 1.484.492 1.117.242 1.75.586.64.336.946.812.312.476.312 1.157 0 1.14-.945 1.851-.945.703-2.477.703-1.04 0-1.851-.375-.813-.374-1.266-1.031a2.44 2.44 0 0 1-.453-1.414h1.844q.039.672.507 1.039.47.36 1.243.359.75 0 1.14-.281a.89.89 0 0 0 .391-.75m5.906-8.211v2.055h1.492v1.406h-1.492v4.719q0 .484.188.703.195.211.687.211.328 0 .664-.078v1.469a4.7 4.7 0 0 1-1.25.179q-2.187 0-2.187-2.414v-4.789h-1.391v-1.406h1.391v-2.055zm10.352 6.367q0 1.962-.891 3.133-.891 1.164-2.391 1.164-1.39 0-2.226-.914v4.008h-1.899v-11.703h1.75l.079.859q.836-1.015 2.273-1.015 1.547 0 2.422 1.156.883 1.148.883 3.195zm-1.891-.164q0-1.265-.508-2.007-.5-.743-1.437-.743-1.165 0-1.672.961v3.75q.516.985 1.687.985.907 0 1.414-.727.516-.735.516-2.219M205.5 171h-1.899v-8.453h1.899zm-2.016-10.648q0-.438.273-.727.281-.29.797-.289.516 0 .797.289a1 1 0 0 1 .281.727.99.99 0 0 1-.281.718q-.28.282-.797.282-.516 0-.797-.282a1 1 0 0 1-.273-.718M209.593 171h-1.898v-12h1.898zm1.719-4.305q0-1.242.492-2.234.492-1 1.383-1.531.89-.54 2.047-.539 1.711 0 2.773 1.101 1.07 1.103 1.157 2.922l.007.445q0 1.251-.484 2.235a3.5 3.5 0 0 1-1.375 1.523q-.89.54-2.062.539-1.79 0-2.868-1.187-1.07-1.195-1.07-3.18zm1.898.164q0 1.305.54 2.047.538.735 1.5.735.96 0 1.492-.75.539-.75.539-2.196 0-1.281-.555-2.031-.547-.75-1.492-.75-.93 0-1.477.742-.547.735-.547 2.203m9.946-6.367v2.055h1.492v1.406h-1.492v4.719q0 .484.187.703.196.211.688.211.328 0 .664-.078v1.469a4.7 4.7 0 0 1-1.25.179q-2.188 0-2.188-2.414v-4.789h-1.39v-1.406h1.39v-2.055z"/></g><defs><filter id="yLqsTGwG__a" width="400" height="340" x="-24" y="-36" color-interpolation-filters="sRGB" filterUnits="userSpaceOnUse"><feFlood flood-opacity="0" result="BackgroundImageFix"/><feColorMatrix in="SourceAlpha" result="hardAlpha" values="0 0 0 0 0 0 0 0 0 0 0 0 0 0 0 0 0 0 127 0"/><feOffset dy="12"/><feGaussianBlur stdDeviation="12"/><feColorMatrix values="0 0 0 0 0.107812 0 0 0 0 0.23 0 0 0 0 0.467187 0 0 0 0.05 0"/><feBlend in2="BackgroundImageFix" result="effect1_dropShadow_103_706"/><feColorMatrix in="SourceAlpha" result="hardAlpha" values="0 0 0 0 0 0 0 0 0 0 0 0 0 0 0 0 0 0 127 0"/><feOffset dy="24"/><feGaussianBlur stdDeviation="30"/><feColorMatrix values="0 0 0 0 0.0247569 0 0 0 0 0.183589 0 0 0 0 0.49191 0 0 0 0.05 0"/><feBlend in2="effect1_dropShadow_103_706" result="effect2_dropShadow_103_706"/><feColorMatrix in="SourceAlpha" result="hardAlpha" values="0 0 0 0 0 0 0 0 0 0 0 0 0 0 0 0 0 0 127 0"/><feOffset dy="2"/><feGaussianBlur stdDeviation="2"/><feColorMatrix values="0 0 0 0 0.0284 0 0 0 0 0.017257 0 0 0 0 0.57441 0 0 0 0.1 0"/><feBlend in2="effect2_dropShadow_103_706" result="effect3_dropShadow_103_706"/><feBlend in="SourceGraphic" in2="effect3_dropShadow_103_706" result="shape"/></filter></defs></svg>