<svg xmlns="http://www.w3.org/2000/svg" width="168" height="23" fill="none"><path fill="#1877F2" d="M.6 17.64a.59.59 0 0 1-.432-.168A.59.59 0 0 1 0 17.04V1.44q0-.264.168-.432A.59.59 0 0 1 .6.84h6.72q1.992 0 3.456.624 1.488.6 2.304 1.824.84 1.224.84 3.096 0 1.848-.84 3.048-.816 1.2-2.304 1.776-1.464.576-3.456.576H4.464v5.256q0 .264-.192.432a.58.58 0 0 1-.432.168zm3.792-9.168H7.2q1.032 0 1.632-.528.624-.528.624-1.608 0-.912-.528-1.536T7.2 4.176H4.392zm17.326 9.408q-2.016 0-3.408-.648-1.368-.648-2.112-1.848-.72-1.224-.816-2.904-.024-.48-.024-1.08 0-.624.024-1.08.096-1.704.864-2.904t2.136-1.848q1.392-.648 3.336-.648 1.968 0 3.336.648 1.392.648 2.16 1.848t.864 2.904q.024.456.024 1.08 0 .6-.024 1.08-.096 1.68-.84 2.904-.72 1.2-2.112 1.848-1.368.648-3.408.648m0-2.928q1.08 0 1.56-.648.504-.648.576-1.944.024-.36.024-.96t-.024-.96q-.072-1.272-.576-1.92-.48-.672-1.56-.672-1.056 0-1.56.672-.504.648-.552 1.92-.024.36-.024.96t.024.96q.048 1.296.552 1.944t1.56.648m9.345 2.688a.59.59 0 0 1-.432-.168.59.59 0 0 1-.168-.432V1.2q0-.264.168-.432A.59.59 0 0 1 31.063.6h2.832q.264 0 .432.168a.59.59 0 0 1 .168.432v15.84q0 .264-.168.432a.59.59 0 0 1-.432.168zm7.687 0a.59.59 0 0 1-.432-.168.59.59 0 0 1-.168-.432V5.76q0-.264.168-.432a.59.59 0 0 1 .432-.168h2.832q.24 0 .408.168a.55.55 0 0 1 .192.432v11.28q0 .264-.192.432a.56.56 0 0 1-.408.168zm-.024-14.28a.59.59 0 0 1-.432-.168.58.58 0 0 1-.168-.432V.624q0-.264.168-.432A.55.55 0 0 1 38.726 0h2.856q.264 0 .432.192a.55.55 0 0 1 .192.432V2.76q0 .264-.192.432a.59.59 0 0 1-.432.168zm12.121 14.52q-1.776 0-3.144-.648a5.3 5.3 0 0 1-2.184-1.872q-.792-1.248-.864-2.976-.026-.48-.024-.96 0-.6.024-.984.072-1.752.864-2.976a5.07 5.07 0 0 1 2.16-1.896q1.392-.648 3.168-.648 1.656 0 2.832.48 1.176.456 1.92 1.152t1.104 1.44q.384.72.408 1.272a.52.52 0 0 1-.168.432.64.64 0 0 1-.432.168h-3.048q-.264 0-.408-.12t-.264-.36q-.288-.744-.744-1.056-.432-.312-1.128-.312-.96 0-1.488.624-.504.624-.552 1.92a30 30 0 0 0 0 1.704q.048 1.32.552 1.92.528.6 1.488.6.744 0 1.176-.312t.696-1.056q.12-.24.264-.36t.408-.12h3.048q.24 0 .432.192a.46.46 0 0 1 .168.408q-.024.408-.24.96c-.174.404-.4.783-.672 1.128-.34.435-.745.815-1.2 1.128q-.72.504-1.752.816t-2.4.312m10.326 4.32a.49.49 0 0 1-.504-.504v-.144q.024-.072.072-.168l1.872-4.512-4.608-10.896a.8.8 0 0 1-.072-.288.7.7 0 0 1 .192-.36.46.46 0 0 1 .36-.168h2.736q.312 0 .456.168a.64.64 0 0 1 .216.336l2.76 6.984 2.808-6.984q.096-.192.24-.336.168-.168.48-.168h2.688q.216 0 .36.168a.43.43 0 0 1 .168.336 1 1 0 0 1-.072.312l-6.792 15.72a.8.8 0 0 1-.24.336q-.168.168-.48.168zm19.145-4.32q-2.28 0-3.912-.744-1.608-.744-2.52-2.184-.888-1.44-.984-3.576a93 93 0 0 1 0-4.272q.096-2.088 1.008-3.528.912-1.464 2.544-2.208Q78.086.6 80.318.6q1.584 0 2.928.408 1.344.384 2.352 1.152a5.2 5.2 0 0 1 1.56 1.824q.576 1.056.6 2.4a.39.39 0 0 1-.144.36.49.49 0 0 1-.36.144h-3.24q-.312 0-.48-.12-.168-.144-.288-.504-.336-1.272-1.104-1.728-.744-.48-1.848-.48-1.32 0-2.088.744-.768.72-.84 2.424a57 57 0 0 0 0 4.032q.072 1.704.84 2.448.768.72 2.088.72 1.104 0 1.872-.48t1.08-1.728q.096-.36.264-.48.192-.144.504-.144h3.24q.216 0 .36.144.168.144.144.36-.024 1.344-.6 2.424a5.5 5.5 0 0 1-1.56 1.824q-1.008.744-2.352 1.152-1.344.384-2.928.384m10.3-.24a.58.58 0 0 1-.433-.168.59.59 0 0 1-.168-.432V1.2q0-.264.168-.432A.59.59 0 0 1 90.617.6h3.072q.264 0 .432.168a.59.59 0 0 1 .168.432v5.352q.648-.744 1.584-1.176.96-.456 2.208-.456 1.392 0 2.472.624 1.104.624 1.728 1.848.624 1.2.624 2.952v6.696a.585.585 0 0 1-.366.562.6.6 0 0 1-.234.038h-3.096a.64.64 0 0 1-.432-.168.59.59 0 0 1-.168-.432v-6.552q0-1.128-.552-1.728-.528-.624-1.584-.624-.984 0-1.584.624-.6.6-.6 1.728v6.552q0 .264-.168.432a.59.59 0 0 1-.432.168h-3.07m18.753.24q-1.296 0-2.328-.48-1.008-.504-1.608-1.344t-.6-1.896q0-1.704 1.392-2.688 1.392-1.008 3.696-1.368l3-.456v-.336q0-.864-.36-1.32t-1.32-.456q-.672 0-1.104.264c-.275.18-.498.428-.648.72a.68.68 0 0 1-.6.312h-2.688q-.264 0-.408-.144a.5.5 0 0 1-.12-.384q0-.432.312-.984.336-.576 1.008-1.128t1.728-.912 2.544-.36q1.56 0 2.664.36t1.776 1.008q.696.648 1.032 1.536.336.864.336 1.92v7.296q0 .264-.192.432a.56.56 0 0 1-.408.168h-2.784a.58.58 0 0 1-.432-.168.59.59 0 0 1-.168-.432v-.84c-.229.326-.514.61-.84.84-.379.27-.801.473-1.248.6q-.696.24-1.632.24m1.128-2.736q.696 0 1.248-.288.576-.312.888-.936.336-.648.336-1.608v-.336l-2.04.36q-1.128.192-1.656.6-.504.384-.504.912 0 .408.24.696t.624.456q.384.144.864.144m9.884 2.496a.58.58 0 0 1-.432-.168.59.59 0 0 1-.168-.432V5.76q0-.264.168-.432a.6.6 0 0 1 .432-.168h2.616q.264 0 .432.168a.59.59 0 0 1 .168.432v.816q.48-.648 1.344-1.128.864-.504 2.04-.528 2.76-.048 3.792 2.088.552-.912 1.584-1.488 1.032-.6 2.256-.6 1.248 0 2.232.576 1.008.552 1.608 1.728.6 1.152.6 3v6.816q0 .264-.192.432a.56.56 0 0 1-.408.168h-2.784a.67.67 0 0 1-.456-.168.59.59 0 0 1-.168-.432v-6.648q0-.84-.24-1.32-.24-.504-.648-.72a2 2 0 0 0-.936-.216q-.432 0-.864.216-.408.216-.672.72-.24.48-.24 1.32v6.648a.585.585 0 0 1-.366.562.6.6 0 0 1-.234.038h-2.784a.58.58 0 0 1-.432-.168.59.59 0 0 1-.168-.432v-6.648q0-.84-.264-1.32-.264-.504-.672-.72a1.9 1.9 0 0 0-.912-.216q-.432 0-.864.216-.408.216-.672.72-.24.48-.24 1.296v6.672q0 .264-.192.432a.57.57 0 0 1-.432.168zm21.961 4.56a.58.58 0 0 1-.432-.168.59.59 0 0 1-.168-.432V5.76q0-.264.168-.432a.6.6 0 0 1 .432-.168h2.712q.24 0 .408.168a.528.528 0 0 1 .192.432v.888q.552-.744 1.464-1.224.912-.504 2.256-.504 1.2 0 2.112.384.912.36 1.56 1.08t1.008 1.752q.384 1.032.432 2.376.024.48.024.888t-.024.888q-.048 1.296-.408 2.328t-1.008 1.752c-.44.486-.98.871-1.584 1.128q-.912.384-2.112.384-1.176 0-2.064-.408a4.04 4.04 0 0 1-1.44-1.2V21.6a.585.585 0 0 1-.366.561.6.6 0 0 1-.234.04zm5.736-7.536q.816 0 1.272-.336c.307-.228.534-.547.648-.912q.216-.576.264-1.272.048-.744 0-1.488A4.4 4.4 0 0 0 150 9.384a1.8 1.8 0 0 0-.648-.912q-.456-.336-1.272-.336-.792 0-1.272.36-.48.336-.696.888c-.147.384-.228.79-.24 1.2q-.048.9 0 1.8.024.6.264 1.128.24.504.72.84.48.312 1.224.312m13.94 3.216q-1.56 0-2.664-.336-1.08-.36-1.776-.864-.672-.504-1.008-1.032-.336-.552-.36-.936a.503.503 0 0 1 .168-.432q.192-.192.408-.192h2.736q.072 0 .12.024t.144.096q.312.168.624.432.338.255.72.432.408.192.984.192.672 0 1.128-.264a.86.86 0 0 0 .456-.792q0-.384-.216-.624-.216-.264-.888-.504-.648-.24-1.968-.48-1.248-.288-2.184-.744-.936-.48-1.44-1.224-.504-.768-.504-1.848 0-.96.624-1.848t1.824-1.44q1.2-.576 2.952-.576 1.392 0 2.4.336 1.032.312 1.728.816.72.504 1.08 1.032t.384.96a.52.52 0 0 1-.144.432.52.52 0 0 1-.384.168h-2.496a.8.8 0 0 1-.192-.024 2 2 0 0 1-.168-.096 3 3 0 0 1-.576-.384 3.4 3.4 0 0 0-.672-.432q-.384-.192-.96-.192-.648 0-1.008.288a.91.91 0 0 0-.36.744q0 .312.192.576.216.264.84.48.648.216 1.992.48 1.656.264 2.64.864.984.576 1.392 1.368.408.768.408 1.632 0 1.152-.696 2.04-.672.888-2.016 1.392-1.344.48-3.264.48"/></svg>